<?xml version="1.0" standalone="no"?>
<!DOCTYPE svg PUBLIC "-//W3C//DTD SVG 20010904//EN" "http://www.w3.org/TR/2001/REC-SVG-20010904/DTD/svg10.dtd">
<!-- Created using Krita: https://krita.org -->
<svg xmlns="http://www.w3.org/2000/svg" 
    xmlns:xlink="http://www.w3.org/1999/xlink"
    xmlns:krita="http://krita.org/namespaces/svg/krita"
    xmlns:sodipodi="http://sodipodi.sourceforge.net/DTD/sodipodi-0.dtd"
    width="168pt"
    height="168pt"
    viewBox="0 0 168 168">
<defs>
  <linearGradient id="gradient0" gradientUnits="objectBoundingBox" x1="0" y1="0" x2="1" y2="1" spreadMethod="reflect">
   <stop stop-color="#ffffff" offset="0" stop-opacity="1"/>
   <stop stop-color="#000000" offset="1" stop-opacity="0"/>
  </linearGradient>
 </defs>
<ellipse id="shape0" transform="matrix(1.10064926264653 0 0 1.22181808412726 1.43999988486422 2.87999976972854)" rx="73.92" ry="66" cx="73.92" cy="66" fill="url(#gradient0)" fill-rule="evenodd"/><ellipse id="shape1" transform="matrix(1.29404508949364 0 0 1.2849407870566 5.67000962102954 5.51581672658272)" rx="60.96" ry="61.08" cx="60.96" cy="61.08" fill="#000000" fill-rule="evenodd"/><ellipse id="shape1" transform="matrix(2.35400945860589 -0.0728388332200034 0.0728388332200034 2.35400945860589 43.9147248293443 124.996692536421)" rx="5.28" ry="5.39999999999999" cx="5.28" cy="5.39999999999999" fill="none" stroke="#ffffff" stroke-width="0" stroke-linecap="square" stroke-linejoin="bevel"/><ellipse id="shape3" transform="matrix(2.35400945860589 -0.0728388332200034 0.0728388332200034 2.35400945860589 39.5855764728577 122.239372619177)" rx="5.88" ry="5.04000000000001" cx="5.88" cy="5.04000000000001" fill="none" stroke="#ffffff" stroke-width="2.4" stroke-linecap="square" stroke-linejoin="bevel"/><path id="shape11" transform="matrix(2.35400949715118 -0.072838834412689 0.072838834412689 2.35400949715118 84.8036389155595 122.512360384702)" sodipodi:type="arc" sodipodi:rx="5.88" sodipodi:ry="5.04000000000001" sodipodi:cx="5.88022216489127" sodipodi:cy="5.04037581434304" sodipodi:start="0.00152208776239071" sodipodi:end="6.14137060894258" sodipodi:open="true" d="M11.7012 4.32802C11.2538 1.64202 8.40591 -0.258359 5.25822 0.0286536C2.11053 0.315667 -0.20718 2.68705 0.0146825 5.39362C0.236545 8.10019 2.91835 10.1705 6.08194 10.0774C9.24553 9.98433 11.7554 7.76129 11.7602 5.04805" fill="none" stroke="#ffffff" stroke-width="2.4" stroke-linecap="square" stroke-linejoin="bevel"/><path id="shape4" transform="matrix(2.35510151918579 0.0127617067707671 -0.0127617067707671 2.35510151918579 20.5658732711498 17.5800053106356)" fill="#ffffff" fill-rule="evenodd" stroke="#ffffff" stroke-width="0" stroke-linecap="square" stroke-linejoin="bevel" d="M10.8097 39.2674L36.6909 39.2985L36.6942 36.5561L0 36.773L10.9995 0.148597L38.4223 0L33.8766 4.59523L15.5947 4.6943L11.0986 18.4305L32.5807 18.3141L29.4052 22.9019C24.0775 22.9307 15.0799 22.9795 9.7522 23.0084L6.60241 32.1666L38.192 31.6346L44.5773 13.3176L35.2935 13.3679L37.831 9.12638L45.9828 9.11078L48.2127 4.15673L58.0106 4.10364L56.35 8.68324L50.0529 8.71736L41.5303 36.1871L39.9554 40.7663L10.8187 40.9242"/>
</svg>
