<?xml version="1.0" standalone="no"?>
<!DOCTYPE svg PUBLIC "-//W3C//DTD SVG 20010904//EN" "http://www.w3.org/TR/2001/REC-SVG-20010904/DTD/svg10.dtd">
<!-- Created using Krita: https://krita.org -->
<svg xmlns="http://www.w3.org/2000/svg" 
    xmlns:xlink="http://www.w3.org/1999/xlink"
    xmlns:krita="http://krita.org/namespaces/svg/krita"
    xmlns:sodipodi="http://sodipodi.sourceforge.net/DTD/sodipodi-0.dtd"
    width="240pt"
    height="240pt"
    viewBox="0 0 240 240">
<defs/>
<ellipse id="shape0" transform="matrix(1.3825868543142 4.31713057276037e-17 -0.776675869597762 1.38258685431419 56.089982902784 94.1164723736092)" rx="60.969488019066" ry="15.0211001262145" cx="60.969488019066" cy="15.0211001262145" fill="#b8f4f5" fill-rule="evenodd" stroke="#000000" stroke-opacity="0" stroke-width="0" stroke-linecap="square" stroke-linejoin="bevel" krita:marker-fill-method="auto"/><text id="shape1" krita:useRichText="true" transform="matrix(1.38186054030586 0.0448091159031704 -0.0448091159031704 1.38186054030586 70.1076358114813 130.472245372317)" fill="#000000" stroke="#000000" stroke-opacity="0" stroke-width="0" stroke-linecap="square" stroke-linejoin="bevel" font-family="Lucida Sans Typewriter" font-size="14" font-size-adjust="0.467909" font-stretch="normal" font-style="italic" letter-spacing="-2" word-spacing="0"><tspan x="0">-KOMMERCE</tspan></text><ellipse id="shape2" transform="matrix(1.38258685431419 0 0 1.38258685431419 21.3041902016517 141.673843371311)" rx="5.28" ry="5.39999999999999" cx="5.28" cy="5.39999999999999" fill="none"/><ellipse id="shape3" transform="matrix(1.38258685431419 0 0 1.38258685431419 18.8140339484955 139.977327525916)" rx="5.88" ry="5.04000000000001" cx="5.88" cy="5.04000000000001" fill="none" stroke="#000000" stroke-width="2.4" stroke-linecap="square" stroke-linejoin="bevel"/><ellipse id="shape0" transform="matrix(1.3825868769531 0 0 1.3825868769531 51.9846065842776 141.62208665305)" rx="5.28" ry="5.39999999999999" cx="5.28" cy="5.39999999999999" fill="none" stroke="#000000" stroke-opacity="0" stroke-width="0" stroke-linecap="square" stroke-linejoin="bevel"/><path id="shape1" transform="matrix(1.3825868769531 0 0 1.3825868769531 45.3417233165181 140.958494032766)" sodipodi:type="arc" sodipodi:rx="5.88" sodipodi:ry="5.04000000000001" sodipodi:cx="5.88022216489127" sodipodi:cy="5.04037581434304" sodipodi:start="0.00152208776239071" sodipodi:end="6.14137060894258" sodipodi:open="true" d="M11.7012 4.32802C11.2538 1.64202 8.40591 -0.258359 5.25822 0.0286536C2.11053 0.315667 -0.20718 2.68705 0.0146825 5.39362C0.236545 8.10019 2.91835 10.1705 6.08194 10.0774C9.24553 9.98433 11.7554 7.76129 11.7602 5.04805" fill="none" stroke="#000000" stroke-width="2.4" stroke-linecap="square" stroke-linejoin="bevel"/><path id="shape4" transform="matrix(1.38167346884557 0.0502477383636646 -0.0502477383636646 1.38167346884557 9.55403402855968 78.2209261317135)" fill="#000000" fill-rule="evenodd" stroke="#000000" stroke-opacity="0" stroke-width="0" stroke-linecap="square" stroke-linejoin="bevel" d="M11.3524 41.2388L38.533 41.2715L38.5364 38.3915L0 38.6192L11.5518 0.156058L40.3513 0L35.5774 4.82594L16.3777 4.92998L11.6558 19.3558L34.2164 19.2335L30.8815 24.0517C25.2863 24.082 15.837 24.1332 10.2418 24.1635L6.93389 33.7816L40.1094 33.2229L46.8153 13.9863L37.0654 14.0391L39.7304 9.58458L48.2914 9.56819L50.6332 4.36542L60.9231 4.30966L59.1791 9.11919L52.5658 9.15502L43.6154 38.0039L41.9614 42.813L11.3619 42.9788"/>
</svg>
