<?xml version="1.0" standalone="no"?>
<!DOCTYPE svg PUBLIC "-//W3C//DTD SVG 20010904//EN" "http://www.w3.org/TR/2001/REC-SVG-20010904/DTD/svg10.dtd">
<!-- Created using Krita: https://krita.org -->
<svg xmlns="http://www.w3.org/2000/svg" 
    xmlns:xlink="http://www.w3.org/1999/xlink"
    xmlns:krita="http://krita.org/namespaces/svg/krita"
    xmlns:sodipodi="http://sodipodi.sourceforge.net/DTD/sodipodi-0.dtd"
    width="240pt"
    height="240pt"
    viewBox="0 0 240 240">
<defs/>
<path id="shape0" transform="translate(62.75999909936, 48)" fill="#b8f4f5" fill-rule="evenodd" d="M144 72C144 32.2355 111.765 2.43479e-15 72 0C32.2355 -2.43479e-15 4.86959e-15 32.2355 0 72C-4.86959e-15 111.765 32.2355 144 72 144C111.765 144 144 111.765 144 72Z"/><ellipse id="shape0" transform="matrix(3.22784938868117 -0.0998775864820344 0.0998775864820344 3.22784938868117 63.6213922619319 181.015215473265)" rx="5.28" ry="5.39999999999999" cx="5.28" cy="5.39999999999999" fill="none" stroke="#000000" stroke-opacity="0" stroke-width="0" stroke-linecap="square" stroke-linejoin="bevel"/><ellipse id="shape1" transform="matrix(3.22784938868117 -0.0998775864820344 0.0998775864820344 3.22784938868117 57.6852058864234 177.234341366436)" rx="5.88" ry="5.04000000000001" cx="5.88" cy="5.04000000000001" fill="none" stroke="#000000" stroke-width="2.4" stroke-linecap="square" stroke-linejoin="bevel"/><ellipse id="shape01" transform="matrix(3.22784944153496 -0.0998775881174606 0.0998775881174606 3.22784944153496 135.24553191004 178.678039460145)" rx="5.28" ry="5.39999999999999" cx="5.28" cy="5.39999999999999" fill="none" stroke="#000000" stroke-opacity="0" stroke-width="0" stroke-linecap="square" stroke-linejoin="bevel"/><path id="shape11" transform="matrix(3.22784944153496 -0.0998775881174606 0.0998775881174606 3.22784944153496 119.688820476596 177.608665857295)" sodipodi:type="arc" sodipodi:rx="5.88" sodipodi:ry="5.04000000000001" sodipodi:cx="5.88022216489127" sodipodi:cy="5.04037581434304" sodipodi:start="0.00152208776239071" sodipodi:end="6.14137060894258" sodipodi:open="true" d="M11.7012 4.32802C11.2538 1.64202 8.40591 -0.258359 5.25822 0.0286536C2.11053 0.315667 -0.20718 2.68705 0.0146825 5.39362C0.236545 8.10019 2.91835 10.1705 6.08194 10.0774C9.24553 9.98433 11.7554 7.76129 11.7602 5.04805" fill="none" stroke="#000000" stroke-width="2.4" stroke-linecap="square" stroke-linejoin="bevel"/><path id="shape2" transform="matrix(3.22934683681686 0.0174990237392437 -0.0174990237392437 3.22934683681686 31.6051333837036 33.7240111289785)" fill="#000000" fill-rule="evenodd" stroke="#000000" stroke-opacity="0" stroke-width="0" stroke-linecap="square" stroke-linejoin="bevel" d="M11.3524 41.2388L38.533 41.2715L38.5364 38.3915L0 38.6192C3.8506 25.7982 7.65839 12.9352 11.5518 0.156058L40.3513 0L35.5774 4.82594L16.3777 4.92998L11.6558 19.3558L34.2164 19.2335L30.8815 24.0517C25.2863 24.082 15.837 24.1332 10.2418 24.1635L6.93389 33.7816L40.1094 33.2229L46.8153 13.9863L37.0654 14.0391L39.7304 9.58458L48.2914 9.56819L50.6332 4.36542L60.9231 4.30966L59.1791 9.11919L52.5658 9.15502L43.6154 38.0039L41.9614 42.813L11.3619 42.9788"/>
</svg>
